<svg version="1.1" id="Layer_1" xmlns="http://www.w3.org/2000/svg" xmlns:xlink="http://www.w3.org/1999/xlink" x="0px" y="0px"
	 width="100%" viewBox="0 0 480 480" enable-background="new 0 0 480 480" xml:space="preserve">
<path fill="#000000" opacity="1.000000" stroke="none" 
	d="
M343.707397,132.685699 
	C310.614258,179.158371 287.128357,229.804977 271.265289,284.143341 
	C262.577271,313.903839 256.686157,344.210846 252.489777,374.875946 
	C250.758133,387.530029 250.995605,400.447388 247.405075,412.855347 
	C247.220184,413.494232 247.096924,414.151855 246.895020,414.784790 
	C241.961716,430.250488 235.390549,435.050415 219.174240,435.043579 
	C197.288025,435.034332 182.293610,424.509552 174.090469,403.538513 
	C158.922943,364.763214 136.296219,330.607849 109.365379,299.111115 
	C104.063210,292.910004 98.640450,286.788177 94.092010,279.980621 
	C87.795784,270.557220 90.952553,260.156250 101.434029,255.846832 
	C110.751602,252.015961 120.178734,252.212662 129.776611,254.869141 
	C145.245255,259.150482 158.181366,267.712067 170.056808,278.155243 
	C176.832825,284.114014 182.938919,290.698303 188.508789,297.795441 
	C189.601379,299.187592 190.341019,301.025421 192.692581,301.613953 
	C196.012100,298.796051 195.551483,294.463196 196.298096,290.798157 
	C203.091553,257.449554 214.617493,225.830704 230.435150,195.734619 
	C257.428528,144.374542 294.340546,101.246132 339.318573,64.878838 
	C347.728394,58.079010 356.274384,51.254780 365.536163,45.752365 
	C376.086456,39.484432 388.071533,38.951389 399.737915,42.477703 
	C406.736328,44.593063 409.104950,51.285515 406.735565,58.332729 
	C405.202148,62.893620 402.343292,66.513222 398.966125,69.797920 
	C378.986694,89.230408 360.153442,109.670372 343.707397,132.685699 
z"/>
</svg>